<svg width="1229px" height="999px" viewBox="0 0 1229 999" version="1.1" xmlns="http://www.w3.org/2000/svg" xmlns:xlink="http://www.w3.org/1999/xlink">
    <!-- Generator: Sketch 46.2 (44496) - http://www.bohemiancoding.com/sketch -->
    <desc>Created with Sketch.</desc>
    <defs></defs>
    <g id="Page-1" stroke="none" stroke-width="1" fill="none" fill-rule="evenodd">
        <g id="envelope" fill-rule="nonzero" fill="#FFFFFF">
            <path d="M1152.1875,0 L76.8125,0 C34.412,0 0,34.4270769 0,76.8461538 L0,922.153846 C0,964.611095 34.412,999 76.8125,999 L1152.1875,999 C1194.62616,999 1229,964.611095 1229,922.153846 L1229,76.8461538 C1229,34.4270769 1194.62616,0 1152.1875,0 Z M1113.78125,883.730769 L115.21875,883.730769 L115.21875,295.896869 L565.10906,673.596217 C579.435345,685.584217 596.98675,691.617394 614.5,691.617394 C632.051405,691.617394 649.564655,685.584217 663.89094,673.596217 L1113.78125,295.896869 L1113.78125,883.730769 Z M1113.78125,145.431095 L614.5,564.551023 L115.21875,145.431095 L115.21875,115.269231 L1113.78125,115.269231 L1113.78125,145.431095 Z" id="Shape"></path>
        </g>
    </g>
</svg>