<svg width="1055px" height="1035px" viewBox="0 0 1055 1035" version="1.1" xmlns="http://www.w3.org/2000/svg" xmlns:xlink="http://www.w3.org/1999/xlink">
    <!-- Generator: Sketch 46.2 (44496) - http://www.bohemiancoding.com/sketch -->
    <desc>Created with Sketch.</desc>
    <defs></defs>
    <g id="Page-1" stroke="none" stroke-width="1" fill="none" fill-rule="evenodd">
        <g id="linkedin" fill-rule="nonzero" fill="#FFFFFF">
            <polygon id="Shape" points="7 336.655331 220 334 220 1031.29647 7 1034 7 336.657626"></polygon>
            <path d="M602.637372,334 L602.637372,422.763367 L602.685607,447.906787 C662.990364,388.777145 725.1556,344.089983 824.479867,344.089983 C941.657834,344.089983 1055,393.198547 1055,553.179782 L1055,1031.91995 L848.280206,1035 L848.280206,669.270856 C848.280206,588.645164 828.076792,536.667857 731.784415,536.667857 C646.948908,536.667857 611.432151,551.8614 611.432151,663.485136 L611.432151,1031.89468 L399.020672,1034.45795 L399.020672,336.586233 L602.637372,334 Z" id="Shape"></path>
            <path d="M116.5,233 C52.1613376,233 0,180.84325 0,116.5 C0,52.1590439 52.1567502,0 116.5,0 C180.840956,0 233,52.1567502 233,116.5 C232.997706,180.84325 180.838662,233 116.5,233 Z" id="Shape"></path>
        </g>
    </g>
</svg>