<svg width="1436px" height="796px" viewBox="0 0 1436 796" version="1.1" xmlns="http://www.w3.org/2000/svg" xmlns:xlink="http://www.w3.org/1999/xlink">
    <!-- Generator: Sketch 46.2 (44496) - http://www.bohemiancoding.com/sketch -->
    <desc>Created with Sketch.</desc>
    <defs></defs>
    <g id="Page-1" stroke="none" stroke-width="1" fill="none" fill-rule="evenodd">
        <g id="soundcloud-icon" fill-rule="nonzero" fill="#FFFFFF">
            <path d="M0,653.091714 C0,670.900172 6.46035136,684.365303 19.3783155,693.492582 C32.2976489,702.618493 46.1070265,705.845198 60.8078176,703.175435 C74.6171952,700.504303 84.3063529,695.606772 89.8766601,688.48421 C95.4442287,681.361648 98.2293823,669.563237 98.2293823,653.091714 L98.2293823,459.434662 C98.2293823,445.632902 93.4409447,433.946701 83.8627002,424.376058 C74.2858249,414.804046 62.5920138,410.018724 48.7812669,410.018724 C35.4169114,410.018724 23.946296,414.804046 14.3680515,424.376058 C4.78980693,433.946701 0,445.632902 0,459.434662 L0,653.091714 Z M153.690088,735.896799 C153.690088,748.809093 158.2567,758.490578 167.388553,764.946725 C176.521775,771.402872 188.215586,774.629578 202.469986,774.629578 C217.170777,774.629578 229.086415,771.401504 238.219637,764.946725 C247.35149,758.491946 251.918101,748.809093 251.918101,735.896799 L251.918101,284.475532 C251.918101,271.119873 247.128295,259.655354 237.551419,250.084711 C227.973175,240.514067 216.279364,235.727377 202.469986,235.727377 C189.105631,235.727377 177.633646,240.514067 168.056771,250.084711 C158.478526,259.656722 153.690088,271.119873 153.690088,284.475532 L153.690088,735.896799 L153.690088,735.896799 Z M306.711959,757.265853 C306.711959,770.176779 311.389483,779.859632 320.744532,786.315779 C330.099581,792.770558 342.127501,795.998632 356.829662,795.998632 C371.084061,795.998632 382.777872,792.770558 391.909725,786.315779 C401.042948,779.859632 405.609559,770.176779 405.609559,757.265853 L405.609559,345.243779 C405.609559,331.443388 400.819752,319.644977 391.242877,309.851284 C381.664632,300.05759 370.194017,295.161427 356.829662,295.161427 C343.018915,295.161427 331.21419,300.05759 321.414119,309.851284 C311.614048,319.644977 306.713328,331.443388 306.713328,345.243779 L306.713328,757.265853 L306.711959,757.265853 Z M460.402047,759.269202 C460.402047,783.755488 476.884296,795.998632 509.850163,795.998632 C542.81466,795.998632 559.296909,783.755488 559.296909,759.269202 L559.296909,91.4862626 C559.296909,54.0904181 547.937207,32.9444145 525.217802,28.0468834 C510.517011,24.4849183 496.038047,28.7146664 481.783647,40.7347593 C467.527878,52.7548522 460.400678,69.6711077 460.400678,91.4862626 L460.400678,759.269202 L460.402047,759.269202 Z M616.766376,778.634907 L616.766376,52.0870692 C616.766376,28.9377168 623.67038,15.1373256 637.481127,10.684527 C667.327732,3.56196514 696.952509,0 726.354091,0 C794.510935,0 857.992993,16.0267905 916.794788,48.0803716 C975.597953,80.1339527 1023.1537,123.873735 1059.45928,179.299719 C1095.76624,234.727071 1116.8151,295.827842 1122.60586,362.607504 C1149.7796,351.032144 1178.73479,345.245148 1209.4728,345.245148 C1271.84025,345.245148 1325.18676,367.281985 1369.51096,411.355659 C1413.83653,455.430701 1436,508.407235 1436,570.289367 C1436,632.61623 1413.83653,685.815815 1369.51096,729.889489 C1325.18676,773.963163 1272.06345,796 1210.14102,796 L628.791558,795.332217 C624.780882,793.996651 621.773902,791.547201 619.769248,787.986605 C617.764595,784.426008 616.766376,781.306039 616.766376,778.634907 L616.766376,778.634907 Z" id="Shape"></path>
        </g>
    </g>
</svg>