<svg width="1351px" height="1098px" viewBox="0 0 1351 1098" version="1.1" xmlns="http://www.w3.org/2000/svg" xmlns:xlink="http://www.w3.org/1999/xlink">
    <!-- Generator: Sketch 46.2 (44496) - http://www.bohemiancoding.com/sketch -->
    <desc>Created with Sketch.</desc>
    <defs></defs>
    <g id="Page-1" stroke="none" stroke-width="1" fill="none" fill-rule="evenodd">
        <g id="twitter_icon" fill-rule="nonzero" fill="#FFFFFF">
            <path d="M1191.79623,173.605932 C1249.05933,139.324435 1292.96683,85.0137115 1313.6738,20.2376834 C1260.11437,52.0196285 1200.82284,75.0946409 1137.66745,87.5441457 C1087.12461,33.6812184 1015.07771,0 935.35906,0 C782.30813,0 658.20913,124.099366 658.20913,277.203183 C658.20913,298.896204 660.65058,320.042991 665.39645,340.367531 C435.03165,328.788527 230.77782,218.455032 94.07013,50.7457257 C70.20761,91.6630982 56.55286,139.274251 56.55286,190.126135 C56.55286,286.282636 105.48029,371.140005 179.85091,420.837656 C134.43608,419.386179 91.68079,406.907722 54.30248,386.143106 C54.27546,387.293479 54.27546,388.474734 54.27546,389.648269 C54.27546,523.929207 149.82011,635.932286 276.62883,661.447016 C253.3704,667.754765 228.88642,671.16149 203.60149,671.16149 C185.7239,671.16149 168.3539,669.43207 151.43745,666.172037 C186.73329,776.287424 289.08119,856.458375 410.34888,858.674194 C315.48745,933.025725 196.00308,977.353683 66.1218,977.353683 C43.77047,977.353683 21.69513,976.035386 0,973.456698 C122.69396,1052.14143 268.37036,1098 424.88371,1098 C934.72795,1098 1213.49715,675.6298 1213.49715,309.324836 C1213.49715,297.307686 1213.25204,285.327209 1212.73287,273.427798 C1266.86358,234.425141 1313.86487,185.582548 1351,129.986341 C1301.33338,152.053812 1247.88396,166.946894 1191.80009,173.611722 L1191.79623,173.605932 Z" id="Shape"></path>
        </g>
    </g>
</svg>